<svg width="90" height="20" viewBox="0 0 112 40" fill="none" xmlns="http://www.w3.org/2000/svg">
<path d="M64.6144 10.8628V30.1926H61.0243V21.9084H51.0274V30.1926H47.4374V10.8628H51.0274V18.8433H61.0243V10.8628H64.6144ZM83.2708 15.4467L76.3668 31.38C75.7224 32.9816 74.94 34.1047 74.0195 34.7489C73.0989 35.4117 71.9852 35.7431 70.678 35.7431C69.9416 35.7431 69.2144 35.6234 68.4963 35.3841C67.7783 35.1448 67.1892 34.8134 66.7289 34.39L68.1097 31.8495C68.4411 32.1625 68.8277 32.411 69.2696 32.595C69.7298 32.7792 70.1901 32.8712 70.6504 32.8712C71.2579 32.8712 71.755 32.7147 72.1416 32.4017C72.5466 32.0888 72.9149 31.5642 73.2462 30.8277L73.4948 30.2479L67.0603 15.4467H70.6504L75.2899 26.3543L79.9569 15.4467H83.2708ZM88.7143 17.6006C89.7089 16.0542 91.4581 15.2811 93.9618 15.2811V18.5672C93.6668 18.5119 93.3997 18.4842 93.1606 18.4842C91.8167 18.4842 90.767 18.8801 90.0124 19.6717C89.2578 20.4448 88.8805 21.5679 88.8805 23.0406V30.1926H85.4279V15.4467H88.7143V17.6006ZM110.618 22.9025C110.618 23.1419 110.6 23.4824 110.563 23.9242H98.9923C99.1941 25.0104 99.7189 25.8757 100.566 26.5199C101.432 27.1459 102.499 27.4588 103.769 27.4588C105.39 27.4588 106.724 26.9249 107.774 25.8573L109.624 27.9835C108.961 28.7752 108.124 29.3735 107.111 29.7785C106.098 30.1835 104.957 30.3859 103.687 30.3859C102.067 30.3859 100.64 30.0638 99.4061 29.4194C98.1724 28.7752 97.2152 27.8823 96.5343 26.7409C95.8713 25.5811 95.5397 24.274 95.5397 22.8197C95.5397 21.3837 95.8619 20.0951 96.5063 18.9537C97.1694 17.7939 98.0808 16.8919 99.2407 16.2475C100.401 15.6032 101.707 15.2811 103.162 15.2811C104.598 15.2811 105.877 15.6032 107.001 16.2475C108.142 16.8735 109.025 17.7663 109.652 18.9261C110.296 20.0675 110.618 21.393 110.618 22.9025ZM103.162 18.0424C102.057 18.0424 101.118 18.3739 100.346 19.0366C99.5901 19.6809 99.1297 20.5462 98.9643 21.6323H107.332C107.185 20.5646 106.733 19.6993 105.979 19.0366C105.224 18.3739 104.285 18.0424 103.162 18.0424Z" fill="black"/>
<path d="M64.6144 10.8628H64.8545V10.6227H64.6144V10.8628ZM64.6144 30.1926V30.4327H64.8545V30.1926H64.6144ZM61.0243 30.1926H60.7842V30.4327H61.0243V30.1926ZM61.0243 21.9084H61.2645V21.6683H61.0243V21.9084ZM51.0274 21.9084V21.6683H50.7873V21.9084H51.0274ZM51.0274 30.1926V30.4327H51.2676V30.1926H51.0274ZM47.4374 30.1926H47.1973V30.4327H47.4374V30.1926ZM47.4374 10.8628V10.6227H47.1973V10.8628H47.4374ZM51.0274 10.8628H51.2676V10.6227H51.0274V10.8628ZM51.0274 18.8433H50.7873V19.0834H51.0274V18.8433ZM61.0243 18.8433V19.0834H61.2645V18.8433H61.0243ZM61.0243 10.8628V10.6227H60.7842V10.8628H61.0243ZM64.3743 10.8628V30.1926H64.8545V10.8628H64.3743ZM64.6144 29.9525H61.0243V30.4327H64.6144V29.9525ZM61.2645 30.1926V21.9084H60.7842V30.1926H61.2645ZM61.0243 21.6683H51.0274V22.1486H61.0243V21.6683ZM50.7873 21.9084V30.1926H51.2676V21.9084H50.7873ZM51.0274 29.9525H47.4374V30.4327H51.0274V29.9525ZM47.6775 30.1926V10.8628H47.1973V30.1926H47.6775ZM47.4374 11.1029H51.0274V10.6227H47.4374V11.1029ZM50.7873 10.8628V18.8433H51.2676V10.8628H50.7873ZM51.0274 19.0834H61.0243V18.6031H51.0274V19.0834ZM61.2645 18.8433V10.8628H60.7842V18.8433H61.2645ZM61.0243 11.1029H64.6144V10.6227H61.0243V11.1029ZM83.2708 15.4467L83.4911 15.5422L83.6366 15.2066H83.2708V15.4467ZM76.3668 31.38L76.1464 31.2846L76.1441 31.2904L76.3668 31.38ZM74.0195 34.7489L73.8818 34.5522L73.8792 34.5541L74.0195 34.7489ZM66.7289 34.39L66.518 34.2754L66.4285 34.4399L66.5664 34.5667L66.7289 34.39ZM68.1097 31.8495L68.2746 31.6749L68.0477 31.4607L67.8987 31.7348L68.1097 31.8495ZM69.2696 32.595L69.1773 32.8167L69.1804 32.818L69.2696 32.595ZM72.1416 32.4017L71.9948 32.2117L71.9905 32.2151L72.1416 32.4017ZM73.2462 30.8277L73.4653 30.9264L73.467 30.9224L73.2462 30.8277ZM73.4948 30.2479L73.7155 30.3425L73.7564 30.2472L73.715 30.1521L73.4948 30.2479ZM67.0604 15.4467V15.2066H66.6941L66.8401 15.5425L67.0604 15.4467ZM70.6504 15.4467L70.8714 15.3528L70.8092 15.2066H70.6504V15.4467ZM75.2899 26.3543L75.0688 26.4483L75.2892 26.9662L75.5107 26.4487L75.2899 26.3543ZM79.9569 15.4467V15.2066H79.7985L79.7361 15.3523L79.9569 15.4467ZM83.0504 15.3513L76.1464 31.2846L76.5872 31.4755L83.4911 15.5422L83.0504 15.3513ZM76.1441 31.2904C75.5085 32.8703 74.7488 33.9454 73.8818 34.5522L74.1572 34.9457C75.1312 34.2639 75.9365 33.093 76.5897 31.4696L76.1441 31.2904ZM73.8792 34.5541C73.0055 35.1831 71.9428 35.5029 70.678 35.5029V35.9832C72.0276 35.9832 73.1924 35.6403 74.1598 34.9439L73.8792 34.5541ZM70.678 35.5029C69.9681 35.5029 69.2665 35.3877 68.5723 35.1563L68.4204 35.6119C69.1622 35.8592 69.9151 35.9832 70.678 35.9832V35.5029ZM68.5723 35.1563C67.8798 34.9255 67.3222 34.6095 66.8915 34.2133L66.5664 34.5667C67.0563 35.0174 67.6768 35.364 68.4204 35.6119L68.5723 35.1563ZM66.94 34.5047L68.3207 31.9642L67.8987 31.7348L66.518 34.2754L66.94 34.5047ZM67.9449 32.024C68.2984 32.358 68.7099 32.622 69.1773 32.8167L69.3619 32.3734C68.9455 32.2 68.5838 31.967 68.2746 31.6749L67.9449 32.024ZM69.1804 32.818C69.6668 33.0126 70.1573 33.1114 70.6504 33.1114V32.6311C70.2229 32.6311 69.7929 32.5458 69.3588 32.3721L69.1804 32.818ZM70.6504 33.1114C71.3003 33.1114 71.8545 32.9432 72.2927 32.5884L71.9905 32.2151C71.6555 32.4864 71.2155 32.6311 70.6504 32.6311V33.1114ZM72.2885 32.5918C72.7377 32.2447 73.1262 31.6799 73.4653 30.9264L73.0273 30.7292C72.7037 31.4484 72.3556 31.933 71.9948 32.2117L72.2885 32.5918ZM73.467 30.9224L73.7155 30.3425L73.2741 30.1533L73.0255 30.7332L73.467 30.9224ZM73.715 30.1521L67.2805 15.351L66.8401 15.5425L73.2745 30.3436L73.715 30.1521ZM67.0604 15.6868H70.6504V15.2066H67.0604V15.6868ZM70.4294 15.5407L75.0688 26.4483L75.5108 26.2603L70.8714 15.3528L70.4294 15.5407ZM75.5107 26.4487L80.1777 15.5412L79.7361 15.3523L75.0691 26.2598L75.5107 26.4487ZM79.9569 15.6868H83.2708V15.2066H79.9569V15.6868ZM88.7143 17.6006H88.4744V18.4182L88.917 17.7304L88.7143 17.6006ZM93.9619 15.2811H94.2018V15.041H93.9619V15.2811ZM93.9619 18.5672L93.9169 18.8031L94.2018 18.8564V18.5672H93.9619ZM90.0124 19.6717L90.1846 19.8394L90.1863 19.8374L90.0124 19.6717ZM88.8805 30.1926V30.4327H89.1205V30.1926H88.8805ZM85.428 30.1926H85.188V30.4327H85.428V30.1926ZM85.428 15.4467V15.2066H85.188V15.4467H85.428ZM88.7143 15.4467H88.9543V15.2066H88.7143V15.4467ZM88.917 17.7304C89.8513 16.2764 91.5064 15.5212 93.9619 15.5212V15.041C91.4089 15.041 89.5664 15.8321 88.5125 17.4708L88.917 17.7304ZM93.7211 15.2811V18.5672H94.2018V15.2811H93.7211ZM94.0059 18.3311C93.6999 18.2738 93.4184 18.2441 93.1606 18.2441V18.7244C93.3819 18.7244 93.6337 18.75 93.9169 18.8031L94.0059 18.3311ZM93.1606 18.2441C91.7675 18.2441 90.6492 18.6564 89.8386 19.506L90.1863 19.8374C90.8858 19.1038 91.8667 18.7244 93.1606 18.7244V18.2441ZM89.8403 19.5039C89.028 20.3362 88.6397 21.5285 88.6397 23.0406H89.1205C89.1205 21.6073 89.4876 20.5535 90.1846 19.8394L89.8403 19.5039ZM88.6397 23.0406V30.1926H89.1205V23.0406H88.6397ZM88.8805 29.9525H85.428V30.4327H88.8805V29.9525ZM85.6688 30.1926V15.4467H85.188V30.1926H85.6688ZM85.428 15.6868H88.7143V15.2066H85.428V15.6868ZM88.4744 15.4467V17.6006H88.9543V15.4467H88.4744ZM110.563 23.9242V24.1643H110.784L110.802 23.9442L110.563 23.9242ZM98.9923 23.9242V23.6841H98.7032L98.7558 23.9682L98.9923 23.9242ZM100.566 26.5199L100.421 26.7111L100.425 26.7145L100.566 26.5199ZM107.774 25.8573L107.955 25.6996L107.785 25.5037L107.603 25.6889L107.774 25.8573ZM109.624 27.9835L109.808 28.1377L109.94 27.9805L109.805 27.8259L109.624 27.9835ZM96.5343 26.7409L96.3257 26.86L96.3283 26.8639L96.5343 26.7409ZM96.5063 18.9537L96.2978 18.8346V18.8357L96.5063 18.9537ZM107.001 16.2475L106.881 16.4558L106.885 16.4581L107.001 16.2475ZM109.652 18.9261L109.44 19.0402L109.442 19.0442L109.652 18.9261ZM100.346 19.0366L100.501 19.2192L100.502 19.2189L100.346 19.0366ZM98.9643 21.6323L98.7269 21.5961L98.6845 21.8724H98.9643V21.6323ZM107.332 21.6323V21.8724H107.608L107.569 21.5995L107.332 21.6323ZM110.378 22.9025C110.378 23.1318 110.361 23.4645 110.323 23.9043L110.802 23.9442C110.839 23.5003 110.858 23.1519 110.858 22.9025H110.378ZM110.563 23.6841H98.9923V24.1643H110.563V23.6841ZM98.7558 23.9682C98.9686 25.1105 99.5239 26.0292 100.421 26.7111L100.712 26.3288C99.914 25.7221 99.4196 24.9103 99.228 23.8802L98.7558 23.9682ZM100.425 26.7145C101.339 27.3754 102.458 27.699 103.769 27.699V27.2187C102.54 27.2187 101.524 26.9165 100.707 26.3255L100.425 26.7145ZM103.769 27.699C105.448 27.699 106.846 27.1433 107.945 26.0256L107.603 25.6889C106.602 26.7067 105.331 27.2187 103.769 27.2187V27.699ZM107.592 26.0149L109.443 28.1412L109.805 27.8259L107.955 25.6996L107.592 26.0149ZM109.44 27.8294C108.804 28.5888 107.999 29.1644 107.022 29.5555L107.2 30.0014C108.248 29.5825 109.119 28.9614 109.808 28.1377L109.44 27.8294ZM107.022 29.5555C106.042 29.9475 104.932 30.1458 103.687 30.1458V30.6261C104.983 30.6261 106.155 30.4194 107.2 30.0014L107.022 29.5555ZM103.687 30.1458C102.099 30.1458 100.711 29.8303 99.5172 29.2066L99.295 29.6323C100.568 30.2973 102.035 30.6261 103.687 30.6261V30.1458ZM99.5172 29.2066C98.3216 28.5819 97.3975 27.7193 96.7404 26.6179L96.3283 26.8639C97.0329 28.0453 98.024 28.9684 99.295 29.6323L99.5172 29.2066ZM96.7429 26.6218C96.1027 25.5015 95.7797 24.2361 95.7797 22.8197H95.2998C95.2998 24.312 95.6407 25.6608 96.3257 26.86L96.7429 26.6218ZM95.7797 22.8197C95.7797 21.421 96.0934 20.1738 96.7158 19.0718L96.2978 18.8357C95.6305 20.0164 95.2998 21.3464 95.2998 22.8197H95.7797ZM96.7149 19.0729C97.3559 17.9509 98.236 17.0803 99.3569 16.4574L99.1237 16.0377C97.9257 16.7034 96.982 17.637 96.2978 18.8346L96.7149 19.0729ZM99.3569 16.4574C100.478 15.8348 101.745 15.5212 103.162 15.5212V15.041C101.671 15.041 100.323 15.3716 99.1237 16.0377L99.3569 16.4574ZM103.162 15.5212C104.56 15.5212 105.798 15.8345 106.881 16.4558L107.12 16.0393C105.957 15.3719 104.635 15.041 103.162 15.041V15.5212ZM106.885 16.4581C107.986 17.0614 108.836 17.9205 109.44 19.0402L109.863 18.8121C109.215 17.6121 108.299 16.6855 107.116 16.037L106.885 16.4581ZM109.442 19.0442C110.064 20.1444 110.378 21.428 110.378 22.9025H110.858C110.858 21.358 110.529 19.9907 109.86 18.808L109.442 19.0442ZM103.162 17.8023C102.005 17.8023 101.009 18.151 100.189 18.8542L100.502 19.2189C101.227 18.5968 102.109 18.2825 103.162 18.2825V17.8023ZM100.19 18.8539C99.3857 19.5398 98.8999 20.4595 98.7269 21.5961L99.2017 21.6685C99.3594 20.6328 99.7953 19.822 100.501 19.2192L100.19 18.8539ZM98.9643 21.8724H107.332V21.3922H98.9643V21.8724ZM107.569 21.5995C107.415 20.4791 106.939 19.5599 106.137 18.8561L105.82 19.217C106.528 19.8387 106.954 20.65 107.094 21.6651L107.569 21.5995ZM106.137 18.8561C105.334 18.1503 104.336 17.8023 103.162 17.8023V18.2825C104.234 18.2825 105.115 18.5973 105.82 19.217L106.137 18.8561Z" fill="black"/>
<mask id="mask0_2_102" style="mask-type:luminance" maskUnits="userSpaceOnUse" x="0" y="0" width="20" height="20">
<path d="M39.0837 0.174255H0.0812988V39.1743H39.0837V0.174255Z" fill="white"/>
</mask>
<g mask="url(#mask0_2_102)">
<path fill-rule="evenodd" clip-rule="evenodd" d="M29.9233 9.32536C31.9688 11.3707 33.3618 13.9766 33.9261 16.8136C34.0156 17.2638 34.0836 17.7165 34.1304 18.1705H24.604L25.2476 14.3095C25.3839 13.4918 24.8314 12.7184 24.0137 12.5822C23.1959 12.446 22.4226 12.9983 22.2863 13.816L20.4175 25.0285C20.2811 25.8462 20.8336 26.6195 21.6513 26.7558C22.4691 26.8921 23.2424 26.3397 23.3787 25.522L24.1037 21.1724H34.1294C33.9846 22.5715 33.6379 23.9499 33.0937 25.2636C31.9868 27.9359 30.1122 30.22 27.7069 31.8271C25.3017 33.4341 22.4739 34.2918 19.5812 34.2918C16.6885 34.2918 13.8607 33.4341 11.4555 31.8271C9.05028 30.22 7.17561 27.9359 6.06861 25.2636C5.50253 23.897 5.15019 22.4603 5.01648 21.0032C5.21793 21.1037 5.44514 21.1602 5.68555 21.1602H14.561L13.9162 25.0285C13.7799 25.8463 14.3323 26.6196 15.15 26.7559C15.9678 26.8921 16.7411 26.3398 16.8775 25.5221L18.7463 14.3096C18.8826 13.4919 18.3302 12.7185 17.5124 12.5823C16.6948 12.446 15.9213 12.9984 15.7851 13.816L15.0613 18.1583H5.68555C5.44572 18.1583 5.21902 18.2145 5.01794 18.3145C5.06457 17.8124 5.1373 17.3114 5.23633 16.8136C5.80067 13.9766 7.19366 11.3707 9.2391 9.32536C11.982 6.58265 15.7021 5.04181 19.5812 5.04181C23.4602 5.04181 27.1804 6.58265 29.9233 9.32536Z" fill="black"/>
</g>
</svg>
